<?xml version="1.0" encoding="iso-8859-1"?>
<!-- Generator: Adobe Illustrator 17.1.0, SVG Export Plug-In . SVG Version: 6.00 Build 0)  -->
<!DOCTYPE svg PUBLIC "-//W3C//DTD SVG 1.1//EN" "http://www.w3.org/Graphics/SVG/1.1/DTD/svg11.dtd">
<svg version="1.1" id="Capa_1" xmlns="http://www.w3.org/2000/svg" xmlns:xlink="http://www.w3.org/1999/xlink" x="0px" y="0px"
	 viewBox="0 0 511 511" style="enable-background:new 0 0 511 511;" xml:space="preserve">
<g>
	<path d="M431.5,0h-336C73.72,0,56,17.72,56,39.5V88h-8.5c-4.142,0-7.5,3.357-7.5,7.5s3.358,7.5,7.5,7.5H56v65h-8.5
		c-4.142,0-7.5,3.357-7.5,7.5s3.358,7.5,7.5,7.5H56v65h-8.5c-4.142,0-7.5,3.357-7.5,7.5s3.358,7.5,7.5,7.5H56v65h-8.5
		c-4.142,0-7.5,3.357-7.5,7.5s3.358,7.5,7.5,7.5H56v65h-8.5c-4.142,0-7.5,3.357-7.5,7.5s3.358,7.5,7.5,7.5H56v48.5
		c0,21.78,17.72,39.5,39.5,39.5h336c21.78,0,39.5-17.72,39.5-39.5v-432C471,17.72,453.28,0,431.5,0z M456,471.5
		c0,13.51-10.991,24.5-24.5,24.5h-336C81.991,496,71,485.01,71,471.5V423h8.5c4.142,0,7.5-3.357,7.5-7.5s-3.358-7.5-7.5-7.5H71v-65
		h8.5c4.142,0,7.5-3.357,7.5-7.5s-3.358-7.5-7.5-7.5H71v-65h8.5c4.142,0,7.5-3.357,7.5-7.5s-3.358-7.5-7.5-7.5H71v-65h8.5
		c4.142,0,7.5-3.357,7.5-7.5s-3.358-7.5-7.5-7.5H71v-65h8.5c4.142,0,7.5-3.357,7.5-7.5S83.642,88,79.5,88H71V39.5
		C71,25.99,81.991,15,95.5,15h336c13.509,0,24.5,10.99,24.5,24.5V471.5z"/>
	<path d="M119.5,32c-4.142,0-7.5,3.357-7.5,7.5v432c0,4.143,3.358,7.5,7.5,7.5s7.5-3.357,7.5-7.5v-432
		C127,35.357,123.642,32,119.5,32z"/>
	<path d="M377.166,295.947c-0.065-0.033-0.131-0.064-0.198-0.096l-24.926-11.566c-7.722-3.579-16.943-0.167-20.556,7.612
		C323.56,308.969,306.295,320,287.5,320s-36.06-11.031-43.986-28.103c-3.612-7.779-12.833-11.195-20.556-7.612l-24.926,11.566
		c-0.066,0.031-0.132,0.063-0.198,0.096C184.366,302.682,176,316.219,176,331.276V367.5c0,8.547,6.953,15.5,15.5,15.5h192
		c8.547,0,15.5-6.953,15.5-15.5v-36.223C399,316.22,390.633,302.682,377.166,295.947z M384,367.5c0,0.275-0.224,0.5-0.5,0.5h-192
		c-0.276,0-0.5-0.225-0.5-0.5v-36.224c0-9.305,5.151-17.674,13.451-21.867l24.82-11.517c0.263-0.126,0.521,0.07,0.638,0.321
		C240.283,320.561,262.889,335,287.5,335s47.217-14.439,57.59-36.786c0.118-0.251,0.374-0.442,0.638-0.322l24.82,11.518
		c8.3,4.193,13.452,12.563,13.452,21.868V367.5z"/>
	<path d="M285.552,294.971c0.66,0.02,1.315,0.029,1.972,0.029c16.609,0,32.239-6.323,44.195-17.927
		C344.152,265.007,351,248.822,351,231.5v-48c0-26.191-21.309-47.5-47.5-47.5h-32c-26.191,0-47.5,21.309-47.5,47.5v45.651
		C224,264.426,251.612,293.951,285.552,294.971z M239,183.5c0-17.921,14.58-32.5,32.5-32.5h32c17.92,0,32.5,14.579,32.5,32.5v48
		c0,13.23-5.23,25.593-14.728,34.809c-9.493,9.212-22.026,14.091-35.271,13.668C260.085,279.199,239,256.398,239,229.151V183.5z"/>
</g>
<g>
</g>
<g>
</g>
<g>
</g>
<g>
</g>
<g>
</g>
<g>
</g>
<g>
</g>
<g>
</g>
<g>
</g>
<g>
</g>
<g>
</g>
<g>
</g>
<g>
</g>
<g>
</g>
<g>
</g>
</svg>
