<?xml version="1.0" encoding="iso-8859-1"?>
<!-- Generator: Adobe Illustrator 19.0.0, SVG Export Plug-In . SVG Version: 6.00 Build 0)  -->
<svg version="1.1" id="Layer_1" xmlns="http://www.w3.org/2000/svg" xmlns:xlink="http://www.w3.org/1999/xlink" x="0px" y="0px"
	 viewBox="0 0 512.001 512.001" style="enable-background:new 0 0 512.001 512.001;" xml:space="preserve">
<polygon style="fill:#D29B6E;" points="279.935,159.257 279.935,141.975 232.354,141.975 232.354,159.257 256.145,182.76 "/>
<path style="fill:#F0C087;" d="M296.043,94.978l-0.076-40.544l-64.125,0.12c-8.817,0.017-16.018,7.244-16.001,16.061l0.027,14.108
	l0.034,17.955c0.042,22.134,18.018,40.044,40.154,40.003c22.135-0.041,40.044-18.019,40.003-40.154L296.043,94.978z"/>
<path style="fill:#707487;" d="M192.108,272.768l-0.032-90.15c-0.018-9.756,9.724-23.803,23.931-23.83l16.031-0.03
	c0.126,0.02,24.092,24.002,24.092,24.002s24.002-23.979,24.002-24.092l16.031-0.03c14.206-0.027,24.001,13.983,24.02,23.739
	l0.033,89.389L192.108,272.768z"/>
<polyline style="fill:#E1C3A0;" points="488.454,271.414 488.801,455.775 23.893,456.648 23.546,272.288 "/>
<path style="fill:#C7CFE2;" d="M360.068,199.515c-0.025-13.281,10.721-24.067,24.002-24.092
	c13.281-0.025,24.067,10.721,24.092,24.002L360.068,199.515z"/>
<path style="fill:#694B4B;" d="M295.966,54.434l-64.125,0.12c-8.817,0.017-16.018,7.244-16.001,16.061l0.027,14.108l80.176,10.255
	L295.966,54.434z"/>
<path d="M191.96,248.754c0.005,0,0.01,0,0.015,0c4.15-0.008,7.509-3.379,7.501-7.529l-0.108-57.703
	c-0.005-2.599,1.457-6.87,4.732-10.556c1.903-2.14,5.954-5.733,11.697-5.744l12.958-0.024c3.968,3.934,12.845,12.8,19.642,19.599
	l0.1,53.007c0.008,4.145,3.371,7.501,7.515,7.501c0.005,0,0.01,0,0.015,0c4.15-0.008,7.509-3.379,7.501-7.529l-0.1-52.988
	c2.285-2.284,6.042-6.041,9.798-9.802c3.005-3.009,6.01-6.022,8.263-8.288c0.583-0.587,1.11-1.117,1.586-1.601l12.879-0.024
	c0.009,0,0.017,0,0.026,0c5.73,0,9.785,3.57,11.693,5.7c3.289,3.672,4.767,7.939,4.772,10.539l0.108,57.737
	c0.008,4.145,3.371,7.501,7.515,7.501c0.005,0,0.01,0,0.015,0c4.15-0.008,7.509-3.379,7.501-7.529l-0.108-57.736
	c-0.013-6.858-3.23-14.536-8.607-20.538c-6.183-6.903-14.309-10.702-22.887-10.702c-0.018,0-0.037,0-0.055,0l-16.031,0.03
	c-2.236,0.004-4.243,0.985-5.617,2.539c-1.211,1.264-10.415,10.487-18.369,18.441c-1.989-1.988-4.338-4.336-6.691-6.685
	c-3.008-3.003-6.02-6.007-8.287-8.261c-5.391-5.358-5.494-5.462-7.932-5.85c-0.397-0.063-0.842-0.101-1.198-0.094l-16.031,0.03
	c-8.598,0.016-16.731,3.848-22.901,10.788c-5.353,6.022-8.543,13.712-8.53,20.57l0.108,57.703
	C184.454,245.398,187.816,248.754,191.96,248.754z"/>
<path d="M255.754,151.115c0.004,0,0.086,0,0.091,0c12.712-0.024,24.655-4.997,33.628-14.003s13.9-20.967,13.876-33.679l-0.015-7.946
	c0-0.007,0-0.014,0-0.021l-0.075-40.127c-0.004-1.993-0.799-3.904-2.211-5.309c-1.409-1.404-3.315-2.191-5.303-2.191
	c-0.004,0-0.009,0-0.014,0l-64.125,0.12c-12.983,0.024-23.526,10.607-23.502,23.59l0.061,32.063
	C208.212,129.805,229.561,151.115,255.754,151.115z M278.825,126.505c-6.139,6.162-14.31,9.565-23.008,9.581l-0.063,7.515v-7.515
	c-17.921,0-32.528-14.581-32.562-32.503l-0.016-8.526l65.14,7.114l0.002,1.29C288.335,112.159,284.963,120.343,278.825,126.505z
	 M231.633,62.988l56.611-0.106l0.045,24.168l-63.81-6.969c-0.451-0.049-0.895-0.05-1.332-0.021l-0.016-8.539
	C223.123,66.824,226.937,62.997,231.633,62.988z"/>
<path d="M504.485,263.869c-0.004,0-0.01,0-0.014,0l-16.016,0.03l0,0c-0.005,0-0.01,0-0.015,0h-0.001l-48.355,0.091l15.319-46.247
	c0.672-2.03,0.448-4.249-0.616-6.104l-31.688-55.214c-0.028-0.069-0.057-0.137-0.086-0.206c-2.111-4.812-6.697-4.869-12.006-4.934
	c-2.767-0.035-6.556,0.001-11.266,0.105c-7.936,0.174-15.917,0.488-15.997,0.491c-4.037,0.159-7.225,3.483-7.218,7.523l0.018,9.416
	c-5.555,1.362-10.648,4.218-14.787,8.372c-5.95,5.973-9.218,13.904-9.202,22.335c0.008,4.145,3.371,7.501,7.515,7.501
	c0.005,0,0.01,0,0.015,0l48.094-0.09c1.993-0.004,3.904-0.8,5.309-2.211c1.406-1.412,2.194-3.324,2.191-5.318
	c-0.028-14.789-10.297-27.223-24.105-30.595l-0.004-2.171c7.869-0.247,15.639-0.393,19.879-0.328l28.633,49.891l-14.884,44.934
	c-0.317,0.957-0.427,1.931-0.362,2.879L7.501,264.803c-4.15,0.008-7.509,3.379-7.501,7.529c0.008,4.145,3.371,7.501,7.515,7.501
	c0.004,0,0.01,0,0.014,0l8.517-0.016l0.333,176.846c0.004,1.993,0.799,3.903,2.211,5.309c1.409,1.403,3.315,2.191,5.303,2.191
	c0.004,0,0.009,0,0.014,0l464.909-0.875c1.993-0.004,3.903-0.799,5.309-2.211c1.407-1.412,2.194-3.324,2.191-5.318l-0.333-176.846
	l8.517-0.016c4.15-0.008,7.509-3.379,7.501-7.529C511.992,267.224,508.629,263.869,504.485,263.869z M398.823,191.927l-29.457,0.055
	c0.776-1.524,1.794-2.934,3.037-4.181c3.117-3.128,7.265-4.855,11.713-4.864C390.512,182.937,396.074,186.594,398.823,191.927z
	 M481.272,448.274l-449.88,0.846l-0.318-169.331l449.879-0.846L481.272,448.274z"/>
<path d="M191.935,311.549c0.005,0,0.01,0,0.015,0l128.25-0.241c4.15-0.008,7.509-3.379,7.501-7.529
	c-0.008-4.145-3.371-7.501-7.515-7.501c-0.005,0-0.01,0-0.015,0l-128.25,0.241c-4.15,0.008-7.509,3.379-7.501,7.529
	C184.429,308.194,187.791,311.549,191.935,311.549z"/>
<path d="M280.168,328.417c-0.005,0-0.01,0-0.015,0l-48.093,0.09c-4.15,0.008-7.509,3.379-7.501,7.529
	c0.008,4.145,3.371,7.501,7.515,7.501c0.005,0,0.01,0,0.015,0l48.093-0.09c4.15-0.008,7.509-3.379,7.501-7.529
	C287.674,331.771,284.311,328.417,280.168,328.417z"/>
<path d="M135.72,240.516c-0.005,0-0.01,0-0.015,0l-72.141,0.135c-4.15,0.008-7.509,3.379-7.501,7.529
	c0.008,4.145,3.371,7.501,7.515,7.501c0.005,0,0.01,0,0.015,0l72.141-0.135c4.15-0.008,7.509-3.379,7.501-7.529
	C143.227,243.87,139.863,240.516,135.72,240.516z"/>
<path d="M63.533,231.633c0.005,0,0.01,0,0.015,0l72.141-0.135c4.15-0.008,7.509-3.379,7.501-7.529
	c-0.008-4.145-3.371-7.501-7.515-7.501c-0.005,0-0.01,0-0.015,0l-72.141,0.135c-4.15,0.008-7.509,3.379-7.501,7.529
	C56.027,228.279,59.389,231.633,63.533,231.633z"/>
<path d="M79.519,207.556c0.005,0,0.01,0,0.015,0l56.11-0.105c4.15-0.008,7.509-3.379,7.501-7.529
	c-0.008-4.145-3.371-7.501-7.515-7.501c-0.005,0-0.01,0-0.015,0l-56.11,0.105c-4.15,0.008-7.509,3.379-7.501,7.529
	C72.014,204.202,75.376,207.556,79.519,207.556z"/>
<g>
</g>
<g>
</g>
<g>
</g>
<g>
</g>
<g>
</g>
<g>
</g>
<g>
</g>
<g>
</g>
<g>
</g>
<g>
</g>
<g>
</g>
<g>
</g>
<g>
</g>
<g>
</g>
<g>
</g>
</svg>
