<?xml version="1.0" encoding="iso-8859-1"?>
<!-- Generator: Adobe Illustrator 19.0.0, SVG Export Plug-In . SVG Version: 6.00 Build 0)  -->
<svg version="1.1" id="Layer_1" xmlns="http://www.w3.org/2000/svg" xmlns:xlink="http://www.w3.org/1999/xlink" x="0px" y="0px"
	 viewBox="0 0 512.002 512.002" style="enable-background:new 0 0 512.002 512.002;" xml:space="preserve">
<g>
	<rect x="19.693" y="244.18" style="fill:#1D1D1B;" width="15.758" height="244.18"/>
	<rect x="3.94" y="496.244" style="fill:#1D1D1B;" width="504.118" height="15.758"/>
	<rect x="137.849" y="102.4" style="fill:#1D1D1B;" width="236.306" height="15.758"/>
	<rect x="137.849" y="78.769" style="fill:#1D1D1B;" width="236.306" height="15.758"/>
	<path style="fill:#1D1D1B;" d="M153.601,488.369h15.754V126.031h-15.754v70.892H35.447v-55.138h75.76L91.515,102.4l19.693-39.384
		H19.693v133.908H3.94v15.754h149.661v7.877H3.94v15.754h149.661V488.369z M35.447,78.77h50.271L73.902,102.4l11.816,23.631H35.447
		V78.77z"/>
	<rect x="59.08" y="252.064" style="fill:#1D1D1B;" width="15.758" height="39.385"/>
	<rect x="114.217" y="252.064" style="fill:#1D1D1B;" width="15.758" height="39.385"/>
	<rect x="59.08" y="315.075" style="fill:#1D1D1B;" width="15.758" height="39.385"/>
	<rect x="114.217" y="315.075" style="fill:#1D1D1B;" width="15.758" height="39.385"/>
	<rect x="59.08" y="378.096" style="fill:#1D1D1B;" width="15.758" height="39.384"/>
	<rect x="114.217" y="378.096" style="fill:#1D1D1B;" width="15.758" height="39.384"/>
	<rect x="59.08" y="441.107" style="fill:#1D1D1B;" width="15.758" height="39.385"/>
	<rect x="114.217" y="441.107" style="fill:#1D1D1B;" width="15.758" height="39.385"/>
	<rect x="476.556" y="244.18" style="fill:#1D1D1B;" width="15.758" height="244.18"/>
	<path style="fill:#1D1D1B;" d="M508.062,212.678v-15.754h-15.753V63.016h-91.515l19.693,39.384l-19.693,39.384h75.76v55.138
		H358.401v-70.892h-15.754v362.338h15.754V236.308h149.661v-15.754H358.401v-7.877H508.062z M426.284,126.031L438.1,102.4
		L426.284,78.77h50.271v47.261C476.555,126.031,426.284,126.031,426.284,126.031z"/>
	<rect x="437.166" y="252.064" style="fill:#1D1D1B;" width="15.758" height="39.385"/>
	<rect x="382.029" y="252.064" style="fill:#1D1D1B;" width="15.758" height="39.385"/>
	<rect x="437.166" y="315.075" style="fill:#1D1D1B;" width="15.758" height="39.385"/>
	<rect x="382.029" y="315.075" style="fill:#1D1D1B;" width="15.758" height="39.385"/>
	<rect x="437.166" y="378.096" style="fill:#1D1D1B;" width="15.758" height="39.384"/>
	<rect x="382.029" y="378.096" style="fill:#1D1D1B;" width="15.758" height="39.384"/>
	<rect x="437.166" y="441.107" style="fill:#1D1D1B;" width="15.758" height="39.385"/>
	<rect x="382.029" y="441.107" style="fill:#1D1D1B;" width="15.758" height="39.385"/>
	<polygon style="fill:#1D1D1B;" points="311.14,488.369 311.14,370.215 200.863,370.215 200.863,488.369 216.618,488.369 
		216.618,385.97 248.125,385.97 248.125,488.369 263.879,488.369 263.879,385.97 295.386,385.97 295.386,488.369 	"/>
	<rect x="271.755" y="448.981" style="fill:#1D1D1B;" width="15.758" height="15.758"/>
	<rect x="224.491" y="448.981" style="fill:#1D1D1B;" width="15.758" height="15.758"/>
	<path style="fill:#1D1D1B;" d="M248.125,141.785h-63.016v204.801h63.016V141.785z M232.37,330.831h-31.508v-31.507h31.508V330.831z
		 M232.37,283.57h-31.508v-31.508h31.508V283.57z M232.37,236.307h-31.508V204.8h31.508V236.307z M232.37,189.046h-31.508v-31.508
		h31.508V189.046z"/>
	<path style="fill:#1D1D1B;" d="M326.894,141.785h-63.016v204.801h63.016V141.785z M311.139,330.831h-31.507v-31.507h31.507V330.831
		z M311.139,283.57h-31.507v-31.508h31.507V283.57z M311.139,236.307h-31.507V204.8h31.507V236.307z M311.139,189.046h-31.507
		v-31.508h31.507V189.046z"/>
	<polygon style="fill:#1D1D1B;" points="303.263,55.138 263.879,55.138 263.879,0 248.125,0 248.125,55.138 208.74,55.138 
		208.74,70.893 303.263,70.893 	"/>
</g>
<g>
</g>
<g>
</g>
<g>
</g>
<g>
</g>
<g>
</g>
<g>
</g>
<g>
</g>
<g>
</g>
<g>
</g>
<g>
</g>
<g>
</g>
<g>
</g>
<g>
</g>
<g>
</g>
<g>
</g>
</svg>
