<?xml version="1.0" encoding="iso-8859-1"?>
<!-- Generator: Adobe Illustrator 19.0.0, SVG Export Plug-In . SVG Version: 6.00 Build 0)  -->
<svg version="1.1" id="Layer_1" xmlns="http://www.w3.org/2000/svg" xmlns:xlink="http://www.w3.org/1999/xlink" x="0px" y="0px"
	 viewBox="0 0 512 512" style="enable-background:new 0 0 512 512;" xml:space="preserve">
<path style="fill:#77757F;" d="M488.727,186.182h-35.202c-2.464-6.963-5.298-13.798-8.496-20.474l24.902-24.902
	c9.089-9.087,9.089-23.824,0-32.912l-65.823-65.826c-4.364-4.364-10.283-6.817-16.457-6.817c-6.173,0-12.093,2.451-16.455,6.817
	L346.292,66.97c-6.676-3.196-13.511-6.032-20.474-8.496V23.273C325.818,10.42,315.398,0,302.545,0H256h-46.545
	c-12.853,0-23.273,10.42-23.273,23.273v35.202c-6.963,2.464-13.798,5.3-20.472,8.496l-24.903-24.902
	c-9.086-9.089-23.822-9.089-32.912,0l-65.826,65.823c-4.366,4.364-6.817,10.283-6.817,16.457c0,6.172,2.451,12.091,6.817,16.455
	l24.903,24.903c-3.196,6.676-6.032,13.509-8.495,20.474H23.273C10.42,186.182,0,196.602,0,209.455v93.091
	c0,12.853,10.42,23.273,23.273,23.273h35.204c2.464,6.963,5.298,13.798,8.495,20.474l-24.903,24.903
	c-4.366,4.364-6.817,10.283-6.817,16.455c0,6.173,2.451,12.093,6.817,16.457l65.828,65.825c9.087,9.087,23.825,9.087,32.912,0
	l24.903-24.902c6.675,3.196,13.509,6.032,20.471,8.496v35.201c0,12.853,10.42,23.273,23.273,23.273H256h46.545
	c12.853,0,23.273-10.42,23.273-23.273v-35.202c6.963-2.464,13.799-5.3,20.474-8.496l24.903,24.902
	c9.087,9.087,23.824,9.087,32.912,0l65.825-65.825c9.089-9.089,9.089-23.824,0-32.912l-24.902-24.902
	c3.198-6.676,6.034-13.511,8.496-20.474h35.201c12.853,0,23.273-10.42,23.273-23.273v-93.091
	C512,196.602,501.58,186.182,488.727,186.182z M256,302.545c-25.665,0-46.545-20.88-46.545-46.545s20.88-46.545,46.545-46.545
	s46.545,20.88,46.545,46.545S281.665,302.545,256,302.545z"/>
<path style="fill:#57575C;" d="M23.273,325.818h35.202c2.464,6.963,5.298,13.798,8.496,20.474l-24.903,24.903
	c-4.366,4.364-6.817,10.283-6.817,16.455c0,6.173,2.451,12.093,6.817,16.457l65.828,65.825c9.087,9.087,23.824,9.087,32.912,0
	l24.903-24.902c6.675,3.196,13.509,6.032,20.471,8.496v35.201c0,12.853,10.42,23.273,23.273,23.273H256V302.545
	c-25.665,0-46.545-20.88-46.545-46.545s20.88-46.545,46.545-46.545V0h-46.545c-12.853,0-23.273,10.42-23.273,23.273v35.202
	c-6.963,2.464-13.798,5.3-20.472,8.496l-24.903-24.902c-9.086-9.089-23.822-9.089-32.912,0l-65.826,65.823
	c-4.366,4.364-6.817,10.283-6.817,16.457c0,6.172,2.451,12.091,6.817,16.455l24.903,24.903c-3.198,6.676-6.032,13.511-8.496,20.474
	H23.273C10.42,186.182,0,196.602,0,209.455v93.091C0,315.398,10.42,325.818,23.273,325.818z"/>
<g>
</g>
<g>
</g>
<g>
</g>
<g>
</g>
<g>
</g>
<g>
</g>
<g>
</g>
<g>
</g>
<g>
</g>
<g>
</g>
<g>
</g>
<g>
</g>
<g>
</g>
<g>
</g>
<g>
</g>
</svg>
